<svg viewBox="0 0 15 15" fill="none" xmlns="http://www.w3.org/2000/svg">
<path fill-rule="evenodd" clip-rule="evenodd" d="M3.125 1.875L11.875 1.875C12.5625 1.875 13.125 2.4375 13.125 3.125L13.125 11.875C13.125 12.5625 12.5625 13.125 11.875 13.125L3.125 13.125C2.43125 13.125 1.875 12.5625 1.875 11.875L1.875 9.375H3.125L3.125 11.875L11.875 11.875L11.875 3.125L3.125 3.125L3.125 5.625H1.875L1.875 3.125C1.875 2.4375 2.43125 1.875 3.125 1.875ZM7.1875 10.625L6.30625 9.74371L7.91875 8.12496H1.875V6.87496L7.91875 6.87496L6.30625 5.25621L7.1875 4.37496L10.3125 7.49996L7.1875 10.625Z" fill="black"/>
</svg>
