<svg width="15" height="15" viewBox="0 0 15 15" fill="none" xmlns="http://www.w3.org/2000/svg">
<path fill-rule="evenodd" clip-rule="evenodd" d="M9.2625 2.5H11.875C12.5625 2.5 13.125 3.0625 13.125 3.75V12.5C13.125 13.1875 12.5625 13.75 11.875 13.75H3.125C3.0375 13.75 2.95625 13.7437 2.875 13.7312C2.63125 13.6812 2.4125 13.5562 2.24375 13.3875C2.13125 13.2688 2.0375 13.1375 1.975 12.9875C1.9125 12.8375 1.875 12.6687 1.875 12.5V3.75C1.875 3.575 1.9125 3.4125 1.975 3.26875C2.0375 3.11875 2.13125 2.98125 2.24375 2.86875C2.4125 2.7 2.63125 2.575 2.875 2.525C2.95625 2.50625 3.0375 2.5 3.125 2.5H5.7375C6 1.775 6.6875 1.25 7.5 1.25C8.3125 1.25 9 1.775 9.2625 2.5ZM4.375 6.25V5H10.625V6.25H4.375ZM10.625 8.75V7.5H4.375V8.75H10.625ZM8.75 10H4.375V11.25H8.75V10ZM7.5 2.34375C7.75625 2.34375 7.96875 2.55625 7.96875 2.8125C7.96875 3.06875 7.75625 3.28125 7.5 3.28125C7.24375 3.28125 7.03125 3.06875 7.03125 2.8125C7.03125 2.55625 7.24375 2.34375 7.5 2.34375ZM3.125 12.5H11.875V3.75H3.125V12.5Z" fill="black"/>
</svg>
